HIERARCHY
ROOT newVegas:Hips
{
	OFFSET 0.000000 96.479958 0.000000
	CHANNELS 6 Xposition Yposition Zposition Xrotation Yrotation Zrotation
	JOINT newVegas:Pelvis
	{
		OFFSET 0.000000 0.000000 0.000000
		CHANNELS 3 Xrotation Yrotation Zrotation
		JOINT newVegas:LeftUpLeg
		{
			OFFSET 18.735201 -5.666702 -4.541200
			CHANNELS 3 Xrotation Yrotation Zrotation
			JOINT newVegas:LeftLeg
			{
				OFFSET -0.021200 -31.938179 0.493100
				CHANNELS 3 Xrotation Yrotation Zrotation
				JOINT newVegas:LeftFoot
				{
					OFFSET 0.021200 -31.938179 -4.336299
					CHANNELS 3 Xrotation Yrotation Zrotation
					JOINT newVegas:LeftToeBase
					{
						OFFSET 0.943001 -26.722000 15.023500
						CHANNELS 3 Xrotation Yrotation Zrotation
						End Site
						{
							OFFSET 0.000000 30.670183 0.000000
						}
					}
				}
				JOINT newVegas:Left_PantLeg
				{
					OFFSET 0.663870 -9.044666 -1.108900
					CHANNELS 3 Xrotation Yrotation Zrotation
					End Site
					{
						OFFSET 1.415995 20.635357 0.000000
					}
				}
			}
		}
		JOINT newVegas:RightUpLeg
		{
			OFFSET -18.735201 -5.666702 -4.541200
			CHANNELS 3 Xrotation Yrotation Zrotation
			JOINT newVegas:RightLeg
			{
				OFFSET 0.018946 -31.938133 0.493100
				CHANNELS 3 Xrotation Yrotation Zrotation
				JOINT newVegas:RightFoot
				{
					OFFSET -0.018946 -31.938126 -4.336299
					CHANNELS 3 Xrotation Yrotation Zrotation
					JOINT newVegas:RightToeBase
					{
						OFFSET -0.943001 -26.722004 15.023500
						CHANNELS 3 Xrotation Yrotation Zrotation
						End Site
						{
							OFFSET 0.000000 30.670187 0.000000
						}
					}
				}
				JOINT newVegas:Right_PantLeg
				{
					OFFSET -0.661674 -9.044716 -1.108900
					CHANNELS 3 Xrotation Yrotation Zrotation
					End Site
					{
						OFFSET -1.415958 20.635269 0.000000
					}
				}
			}
		}
	}
	JOINT newVegas:Spine
	{
		OFFSET 0.000000 10.199997 -0.299500
		CHANNELS 3 Xrotation Yrotation Zrotation
		JOINT newVegas:Spine1
		{
			OFFSET 0.000000 11.900002 -1.516600
			CHANNELS 3 Xrotation Yrotation Zrotation
			JOINT newVegas:Spine2
			{
				OFFSET 0.000000 13.600006 -2.842500
				CHANNELS 3 Xrotation Yrotation Zrotation
				JOINT newVegas:Neck
				{
					OFFSET 0.000000 9.624100 -2.890100
					CHANNELS 3 Xrotation Yrotation Zrotation
					JOINT newVegas:Head
					{
						OFFSET 0.000000 14.068802 -1.351900
						CHANNELS 3 Xrotation Yrotation Zrotation
						JOINT newVegas:Hair_Back
						{
							OFFSET 0.000000 3.231903 -17.524799
							CHANNELS 3 Xrotation Yrotation Zrotation
							End Site
							{
								OFFSET 0.000000 19.849884 0.000000
							}
						}
						JOINT newVegas:Hair_Front
						{
							OFFSET 0.000000 31.260406 4.573800
							CHANNELS 3 Xrotation Yrotation Zrotation
							JOINT newVegas:Hair_Front1
							{
								OFFSET 0.000000 2.284103 11.993300
								CHANNELS 3 Xrotation Yrotation Zrotation
								JOINT newVegas:Hair_Front2
								{
									OFFSET 0.000000 2.284103 11.993300
									CHANNELS 3 Xrotation Yrotation Zrotation
									End Site
									{
										OFFSET 0.000000 12.208862 0.000000
									}
								}
							}
						}
						JOINT newVegas:Jowel
						{
							OFFSET 0.000000 -7.458206 6.864100
							CHANNELS 3 Xrotation Yrotation Zrotation
							End Site
							{
								OFFSET 0.000000 19.849884 0.000000
							}
						}
					}
				}
				JOINT newVegas:LeftShoulder
				{
					OFFSET 15.263000 10.923401 -0.547700
					CHANNELS 3 Xrotation Yrotation Zrotation
					JOINT newVegas:LeftArm
					{
						OFFSET 25.438599 -2.830597 -13.032500
						CHANNELS 3 Xrotation Yrotation Zrotation
						JOINT newVegas:LeftForeArm
						{
							OFFSET 29.960503 0.000000 0.000000
							CHANNELS 3 Xrotation Yrotation Zrotation
							JOINT newVegas:LeftHand
							{
								OFFSET 27.849251 0.000000 0.000000
								CHANNELS 3 Xrotation Yrotation Zrotation
								JOINT newVegas:LeftHandThumb1
								{
									OFFSET 4.487587 -3.305161 6.305391
									CHANNELS 3 Xrotation Yrotation Zrotation
									JOINT newVegas:LeftHandThumb2
									{
										OFFSET 5.480453 -3.164139 3.164143
										CHANNELS 3 Xrotation Yrotation Zrotation
										JOINT newVegas:LeftHandThumb3
										{
											OFFSET 5.159721 -2.978973 2.978967
											CHANNELS 3 Xrotation Yrotation Zrotation
											End Site
											{
												OFFSET 2.494507 5.926697 1.738678
											}
										}
									}
								}
								JOINT newVegas:LeftHandIndex1
								{
									OFFSET 18.578728 -0.527832 5.208049
									CHANNELS 3 Xrotation Yrotation Zrotation
									JOINT newVegas:LeftHandIndex2
									{
										OFFSET 3.192009 0.000000 0.000000
										CHANNELS 3 Xrotation Yrotation Zrotation
										JOINT newVegas:LeftHandIndex3
										{
											OFFSET 3.835129 0.000000 0.000000
											CHANNELS 3 Xrotation Yrotation Zrotation
											End Site
											{
												OFFSET -0.034599 3.816971 0.371180
											}
										}
									}
								}
								JOINT newVegas:LeftHandMiddle1
								{
									OFFSET 18.476105 0.000000 0.000000
									CHANNELS 3 Xrotation Yrotation Zrotation
									JOINT newVegas:LeftHandMiddle2
									{
										OFFSET 3.324875 0.000000 0.000000
										CHANNELS 3 Xrotation Yrotation Zrotation
										JOINT newVegas:LeftHandMiddle3
										{
											OFFSET 4.596550 0.000000 0.000000
											CHANNELS 3 Xrotation Yrotation Zrotation
											End Site
											{
												OFFSET 0.057701 4.578827 0.399218
											}
										}
									}
								}
								JOINT newVegas:LeftHandRing1
								{
									OFFSET 17.732719 0.121887 -4.201567
									CHANNELS 3 Xrotation Yrotation Zrotation
									JOINT newVegas:LeftHandRing2
									{
										OFFSET 2.733170 0.000000 0.000000
										CHANNELS 3 Xrotation Yrotation Zrotation
										JOINT newVegas:LeftHandRing3
										{
											OFFSET 3.178268 0.000000 0.000000
											CHANNELS 3 Xrotation Yrotation Zrotation
											End Site
											{
												OFFSET 0.119102 3.170624 0.185394
											}
										}
									}
								}
								JOINT newVegas:LeftHandPinky1
								{
									OFFSET 15.989624 -0.606689 -7.535461
									CHANNELS 3 Xrotation Yrotation Zrotation
									JOINT newVegas:LeftHandPinky2
									{
										OFFSET 2.538986 0.000000 0.000000
										CHANNELS 3 Xrotation Yrotation Zrotation
										JOINT newVegas:LeftHandPinky3
										{
											OFFSET 2.593102 0.000000 0.000000
											CHANNELS 3 Xrotation Yrotation Zrotation
											End Site
											{
												OFFSET -0.150902 2.584198 0.152708
											}
										}
									}
								}
							}
							JOINT newVegas:Left_Sleeve
							{
								OFFSET 0.267448 -0.649796 0.577675
								CHANNELS 3 Xrotation Yrotation Zrotation
								End Site
								{
									OFFSET 0.000000 15.991241 0.000000
								}
							}
							JOINT newVegas:Left_CapeC
							{
								OFFSET 15.715958 -8.608795 -6.935905
								CHANNELS 3 Xrotation Yrotation Zrotation
								JOINT newVegas:Left_CapeC1
								{
									OFFSET 0.000000 -8.688499 0.000000
									CHANNELS 3 Xrotation Yrotation Zrotation
									End Site
									{
										OFFSET 0.000000 8.688499 0.000000
									}
								}
							}
						}
						JOINT newVegas:Left_CapeB
						{
							OFFSET 26.118385 -8.608795 -7.079235
							CHANNELS 3 Xrotation Yrotation Zrotation
							JOINT newVegas:Left_CapeB1
							{
								OFFSET 0.000000 -8.688499 0.000000
								CHANNELS 3 Xrotation Yrotation Zrotation
								End Site
								{
									OFFSET 0.000000 8.688499 0.000000
								}
							}
						}
						JOINT newVegas:Left_CapeA
						{
							OFFSET 5.115639 -8.608795 -10.395809
							CHANNELS 3 Xrotation Yrotation Zrotation
							JOINT newVegas:Left_CapeA1
							{
								OFFSET 0.000000 -8.688499 0.000000
								CHANNELS 3 Xrotation Yrotation Zrotation
								End Site
								{
									OFFSET 0.000000 8.688499 0.000000
								}
							}
						}
					}
				}
				JOINT newVegas:RightShoulder
				{
					OFFSET -15.263000 10.923401 -0.547700
					CHANNELS 3 Xrotation Yrotation Zrotation
					JOINT newVegas:RightArm
					{
						OFFSET -25.438599 -2.830597 -13.032500
						CHANNELS 3 Xrotation Yrotation Zrotation
						JOINT newVegas:RightForeArm
						{
							OFFSET -29.960503 0.000000 0.000000
							CHANNELS 3 Xrotation Yrotation Zrotation
							JOINT newVegas:RightHand
							{
								OFFSET -27.849251 0.000000 0.000000
								CHANNELS 3 Xrotation Yrotation Zrotation
								JOINT newVegas:RightHandThumb1
								{
									OFFSET -4.487587 -3.305161 6.305391
									CHANNELS 3 Xrotation Yrotation Zrotation
									JOINT newVegas:RightHandThumb2
									{
										OFFSET -5.480453 -3.164139 3.164143
										CHANNELS 3 Xrotation Yrotation Zrotation
										JOINT newVegas:RightHandThumb3
										{
											OFFSET -5.159721 -2.978973 2.978967
											CHANNELS 3 Xrotation Yrotation Zrotation
											End Site
											{
												OFFSET -2.494507 5.926697 1.738678
											}
										}
									}
								}
								JOINT newVegas:RightHandIndex1
								{
									OFFSET -18.578728 -0.527832 5.208049
									CHANNELS 3 Xrotation Yrotation Zrotation
									JOINT newVegas:RightHandIndex2
									{
										OFFSET -3.192009 0.000000 0.000000
										CHANNELS 3 Xrotation Yrotation Zrotation
										JOINT newVegas:RightHandIndex3
										{
											OFFSET -3.835129 0.000000 0.000000
											CHANNELS 3 Xrotation Yrotation Zrotation
											End Site
											{
												OFFSET 0.034599 3.816971 0.371180
											}
										}
									}
								}
								JOINT newVegas:RightHandMiddle1
								{
									OFFSET -18.476105 0.000000 0.000000
									CHANNELS 3 Xrotation Yrotation Zrotation
									JOINT newVegas:RightHandMiddle2
									{
										OFFSET -3.324875 0.000000 0.000000
										CHANNELS 3 Xrotation Yrotation Zrotation
										JOINT newVegas:RightHandMiddle3
										{
											OFFSET -4.596550 0.000000 0.000000
											CHANNELS 3 Xrotation Yrotation Zrotation
											End Site
											{
												OFFSET -0.057701 4.578827 0.399218
											}
										}
									}
								}
								JOINT newVegas:RightHandRing1
								{
									OFFSET -17.732719 0.121887 -4.201567
									CHANNELS 3 Xrotation Yrotation Zrotation
									JOINT newVegas:RightHandRing2
									{
										OFFSET -2.733170 0.000000 0.000000
										CHANNELS 3 Xrotation Yrotation Zrotation
										JOINT newVegas:RightHandRing3
										{
											OFFSET -3.178268 0.000000 0.000000
											CHANNELS 3 Xrotation Yrotation Zrotation
											End Site
											{
												OFFSET -0.119102 3.170624 0.185394
											}
										}
									}
								}
								JOINT newVegas:RightHandPinky1
								{
									OFFSET -15.989624 -0.606689 -7.535461
									CHANNELS 3 Xrotation Yrotation Zrotation
									JOINT newVegas:RightHandPinky2
									{
										OFFSET -2.538986 0.000000 0.000000
										CHANNELS 3 Xrotation Yrotation Zrotation
										JOINT newVegas:RightHandPinky3
										{
											OFFSET -2.593102 0.000000 0.000000
											CHANNELS 3 Xrotation Yrotation Zrotation
											End Site
											{
												OFFSET 0.150902 2.584198 0.152708
											}
										}
									}
								}
							}
							JOINT newVegas:Right_CapeC
							{
								OFFSET -15.715958 -8.608795 -6.935905
								CHANNELS 3 Xrotation Yrotation Zrotation
								JOINT newVegas:Right_CapeC1
								{
									OFFSET 0.000000 -8.688499 0.000000
									CHANNELS 3 Xrotation Yrotation Zrotation
									End Site
									{
										OFFSET 0.000000 8.688499 0.000000
									}
								}
							}
							JOINT newVegas:Right_Sleeve
							{
								OFFSET -0.267448 -0.649994 0.577675
								CHANNELS 3 Xrotation Yrotation Zrotation
								End Site
								{
									OFFSET 0.000000 15.991302 0.000000
								}
							}
						}
						JOINT newVegas:Right_CapeA
						{
							OFFSET -5.115540 -8.608795 -10.395824
							CHANNELS 3 Xrotation Yrotation Zrotation
							JOINT newVegas:Right_CapeA1
							{
								OFFSET 0.000000 -8.688499 0.000000
								CHANNELS 3 Xrotation Yrotation Zrotation
								End Site
								{
									OFFSET 0.000000 8.688499 0.000000
								}
							}
						}
						JOINT newVegas:Right_CapeB
						{
							OFFSET -26.118187 -8.608795 -7.079266
							CHANNELS 3 Xrotation Yrotation Zrotation
							JOINT newVegas:Right_CapeB1
							{
								OFFSET 0.000000 -8.688499 0.000000
								CHANNELS 3 Xrotation Yrotation Zrotation
								End Site
								{
									OFFSET 0.000000 8.688499 0.000000
								}
							}
						}
					}
				}
				JOINT newVegas:Left_Collar
				{
					OFFSET 18.625099 8.655502 8.828100
					CHANNELS 3 Xrotation Yrotation Zrotation
					JOINT newVegas:Left_Collar1
					{
						OFFSET 14.783401 10.540405 -1.259500
						CHANNELS 3 Xrotation Yrotation Zrotation
						End Site
						{
							OFFSET 0.000000 18.199875 0.000000
						}
					}
				}
				JOINT newVegas:Collar_Back
				{
					OFFSET 0.000000 15.630707 -20.132601
					CHANNELS 3 Xrotation Yrotation Zrotation
					End Site
					{
						OFFSET 0.000000 22.523010 0.000000
					}
				}
				JOINT newVegas:Left_Peck
				{
					OFFSET 17.239599 -5.132599 25.482599
					CHANNELS 3 Xrotation Yrotation Zrotation
					End Site
					{
						OFFSET 0.000000 22.523010 0.000000
					}
				}
				JOINT newVegas:Right_Peck
				{
					OFFSET -17.239599 -5.132202 25.482599
					CHANNELS 3 Xrotation Yrotation Zrotation
					End Site
					{
						OFFSET 0.000000 22.523010 0.000000
					}
				}
				JOINT newVegas:Right_Collar
				{
					OFFSET -18.625099 8.655792 8.828100
					CHANNELS 3 Xrotation Yrotation Zrotation
					JOINT newVegas:Right_Collar1
					{
						OFFSET -14.783401 10.539993 -1.259500
						CHANNELS 3 Xrotation Yrotation Zrotation
						End Site
						{
							OFFSET 0.000000 18.199631 0.000000
						}
					}
				}
			}
		}
		JOINT newVegas:Belly
		{
			OFFSET 0.000000 -6.540398 9.014299
			CHANNELS 3 Xrotation Yrotation Zrotation
			End Site
			{
				OFFSET 0.000000 11.566666 0.000000
			}
		}
	}
	JOINT newVegas:ElvisFacialAnim_Joint
	{
		OFFSET 1.000000 -95.330101 -8.825800
		CHANNELS 3 Xrotation Yrotation Zrotation
		End Site
		{
			OFFSET 0.000000 35.315800 0.000000
		}
	}
}
MOTION
Frames: 4
Frame Time: 0.033333
0.059601 94.227669 5.107342 0.433125 -0.482088 2.100845 0.000000 -0.000000 -0.000000 -40.944167 2.658119 0.832311 52.587918 2.208191 -0.499830 9.415357 -0.158829 -7.565051 0.000000 0.000000 0.000001 -0.000000 0.000001 0.000000 -24.421381 -7.897084 -4.197325 34.757446 8.003887 1.117031 -5.426063 0.741609 -5.037158 0.000000 -0.000000 0.000000 0.000001 0.000000 -0.000001 14.481362 -2.216645 -1.412651 1.103878 -0.549361 -0.002286 1.103867 -0.556265 0.004268 -2.648004 -0.370474 0.519160 -2.648000 -0.370473 0.519144 -0.000000 -0.000000 0.000000 -2.648006 -0.370519 0.519168 -2.647931 -0.370438 0.519154 -0.000001 -0.000000 0.000000 -0.000000 -0.000000 0.000000 3.484220 -0.604822 -14.701480 12.586504 -15.287237 -53.501131 0.000011 -72.413228 0.000017 -3.559456 10.120139 -0.557152 -4.259458 -4.051571 21.939152 18.300172 13.385806 -14.221138 0.000003 -0.000002 -0.000003 -1.881329 -2.315112 -19.330827 0.909309 3.136619 -32.326725 -0.000002 -0.000001 0.000001 0.210230 3.793534 -19.942812 0.798346 2.954261 -30.238613 -0.000001 -0.000001 -0.000002 2.017429 7.498661 -27.733394 1.001701 3.277828 -33.977883 0.000001 -0.000004 -0.000001 -6.408542 9.788516 -28.549142 0.931612 3.171525 -32.732077 0.000002 -0.000003 0.000000 0.000001 -0.000002 0.000001 0.000001 -0.000002 0.000001 0.000000 -0.000001 0.000002 -0.000001 0.000002 0.000001 -0.000001 0.000001 -0.000002 -0.000001 0.000002 0.000001 -0.000001 0.000002 -0.000000 4.453580 -8.062524 18.298427 16.677855 13.024818 49.436749 0.000018 64.503111 -0.000012 3.311335 19.698928 -3.818964 -3.435258 3.012182 -14.090155 17.420116 -14.679101 5.446340 0.000000 -0.000000 -0.000002 -1.632567 5.381383 12.050644 1.062702 -2.963212 39.452095 -0.000001 0.000002 -0.000001 -1.718313 0.626491 24.485053 0.834114 -2.661572 34.795699 -0.000000 -0.000002 -0.000001 0.446040 -4.245908 31.539498 0.899642 -2.753360 36.182767 0.000001 0.000002 0.000001 -10.096735 -16.487160 27.843930 0.609984 -2.306174 29.627759 -0.000001 0.000003 -0.000003 -0.000001 -0.000002 0.000001 -0.000000 -0.000002 -0.000001 -0.000001 -0.000002 0.000001 0.000001 -0.000001 0.000002 0.000001 0.000000 0.000002 0.000001 -0.000001 0.000002 0.000001 0.000000 0.000002 0.000002 0.000000 -0.000000 0.000002 0.000000 -0.000000 0.000002 0.000000 -0.000000 0.000002 0.000000 -0.000000 0.000002 0.000000 -0.000000 0.000002 0.000000 -0.000000 0.000002 0.000000 -0.000000 -0.000001 -0.000000 0.000000 0.000000 -0.000000 -0.000000 
0.411677 94.728683 1.488464 -0.225323 -1.884863 1.807224 0.000000 -0.000000 -0.000000 -35.379267 3.739725 1.870175 59.963276 0.799275 -0.859690 5.277819 0.150797 -8.327058 -0.000002 0.000000 -0.000000 -0.000000 -0.000001 0.000000 -26.038727 -7.780262 -3.871894 31.072197 8.516830 1.431775 1.477772 0.244775 -4.696836 -0.000000 0.000000 0.000000 -0.000001 -0.000000 0.000000 13.822518 -2.489836 -0.982170 1.063949 -0.642235 0.126465 1.063012 -0.652758 0.134736 -2.620598 -0.331081 0.611222 -2.620600 -0.331080 0.611222 0.000001 -0.000000 -0.000000 -2.620597 -0.331083 0.611223 -2.620528 -0.331085 0.611222 -0.000000 -0.000000 -0.000000 0.000001 -0.000000 -0.000000 3.559660 -0.056985 -14.822385 12.670844 -17.333301 -52.475585 -0.000034 -81.513636 -0.000029 -3.771236 11.074903 2.407696 -4.266603 -3.722612 22.043092 18.350990 13.537233 -14.108009 0.000002 -0.000000 -0.000006 -1.960876 -1.898792 -23.901588 1.144347 3.479779 -36.397764 0.000001 0.000002 0.000001 0.276314 4.087643 -24.165221 1.018602 3.302728 -34.272387 0.000004 -0.000003 0.000001 2.134790 7.331871 -32.060314 1.261553 3.633081 -38.286899 -0.000002 -0.000002 0.000001 -6.052849 9.916536 -32.622469 1.162890 3.504767 -36.702537 0.000002 -0.000003 -0.000001 0.000001 -0.000001 0.000000 0.000001 -0.000001 0.000000 -0.000000 -0.000001 0.000001 0.000002 -0.000003 -0.000000 0.000002 -0.000003 0.000000 0.000002 -0.000003 -0.000000 0.000003 -0.000003 -0.000001 4.276409 -7.752576 17.275256 18.105167 9.974428 50.503139 0.000015 61.131183 -0.000016 1.501730 18.702993 -2.986276 -3.435045 2.987694 -14.094146 17.414365 -14.667258 5.425340 0.000002 0.000001 -0.000004 -1.716338 5.131690 13.330323 1.123607 -3.035589 40.615781 -0.000003 0.000002 -0.000000 -1.689742 0.443045 25.027526 0.856141 -2.692962 35.267217 -0.000003 -0.000001 0.000001 0.483140 -4.313971 32.004924 0.916465 -2.776157 36.531185 0.000004 -0.000001 -0.000003 -10.169066 -16.311994 28.069151 0.618416 -2.320907 29.836571 -0.000003 -0.000000 0.000003 0.000002 0.000000 0.000001 0.000002 0.000000 0.000001 0.000002 0.000000 0.000001 0.000000 0.000003 -0.000000 -0.000000 0.000003 -0.000000 0.000000 0.000003 -0.000000 0.000000 0.000003 -0.000001 0.000002 -0.000001 0.000000 0.000002 -0.000001 0.000000 0.000002 -0.000001 0.000000 0.000002 -0.000001 0.000000 0.000002 -0.000001 0.000000 0.000002 -0.000001 0.000000 0.000002 -0.000001 0.000000 0.000000 0.000000 -0.000000 0.000000 -0.000000 -0.000000 
0.803870 94.556511 -2.240104 -0.708770 -2.990276 1.306364 0.000000 -0.000000 0.000000 -28.426568 4.507528 2.686377 62.780783 -1.120684 -1.083398 3.036763 0.367703 -9.501623 0.000001 0.000000 -0.000001 0.000002 -0.000000 0.000000 -27.923750 -7.550401 -3.314977 28.028677 9.080573 1.698361 7.288281 -0.154095 -4.101788 0.000000 0.000000 0.000000 0.000000 0.000000 -0.000001 13.283041 -2.805137 -0.399489 1.007638 -0.755486 0.249394 1.005556 -0.768634 0.258914 -2.584595 -0.303150 0.707136 -2.584596 -0.303155 0.707136 0.000000 0.000000 -0.000000 -2.584527 -0.303152 0.707137 -2.584741 -0.303140 0.707133 0.000000 0.000000 -0.000000 0.000000 0.000000 -0.000000 3.587269 0.191121 -14.771522 12.454290 -19.364162 -51.463351 0.000558 -90.088167 -0.001665 -2.593430 12.034331 5.649050 -4.283480 -3.020160 22.264605 18.543783 14.019917 -13.965715 -0.000002 0.000000 -0.000001 -1.782348 -1.230795 -32.751734 1.700701 4.127859 -44.769359 0.000000 -0.000001 -0.000002 0.464164 4.709449 -32.945889 1.557990 3.979214 -42.750789 0.000002 -0.000001 0.000000 2.248514 7.055415 -40.881435 1.876924 4.297744 -47.167695 -0.000001 -0.000002 0.000002 -5.357805 10.076466 -41.107873 1.722977 4.150113 -45.077917 0.000001 -0.000005 0.000003 -0.000002 -0.000002 -0.000001 -0.000002 -0.000002 -0.000001 -0.000002 -0.000002 -0.000001 -0.000000 -0.000002 -0.000000 0.000000 -0.000003 -0.000000 -0.000000 -0.000002 -0.000000 -0.000001 -0.000001 -0.000002 4.175227 -7.766152 16.458674 19.345505 7.475534 51.151379 0.000014 57.799786 0.000018 0.089226 18.388135 -1.204043 -3.428396 2.926627 -14.110279 17.401223 -14.639016 5.374728 0.000002 -0.000002 -0.000001 -1.722764 4.877339 14.651466 1.147932 -3.063672 41.072786 -0.000001 0.000001 -0.000001 -1.676994 0.242259 25.851614 0.903017 -2.757983 36.253083 -0.000001 -0.000001 0.000001 0.555023 -4.437568 32.675150 0.957815 -2.831091 37.377015 -0.000000 0.000001 0.000001 -10.181948 -16.135279 28.613749 0.650255 -2.375518 30.613659 0.000002 0.000003 -0.000000 0.000000 0.000001 -0.000001 -0.000000 0.000001 0.000000 0.000000 0.000001 -0.000001 0.000001 0.000000 0.000002 0.000001 0.000001 0.000003 0.000001 0.000000 0.000002 0.000001 0.000001 0.000004 0.000002 0.000000 -0.000000 0.000002 0.000000 -0.000000 0.000002 0.000000 -0.000000 0.000002 0.000000 -0.000000 0.000002 0.000000 -0.000000 0.000002 0.000000 -0.000000 0.000002 0.000000 -0.000000 -0.000001 -0.000000 -0.000000 0.000000 -0.000000 0.000000 
1.261636 93.732048 -6.188364 -0.858487 -3.352465 0.859840 0.000000 -0.000000 0.000000 -20.872647 4.506718 2.969833 60.794387 -3.872637 -1.045132 2.612422 0.453432 -12.346621 0.000001 -0.000000 -0.000000 -0.000001 -0.000000 -0.000000 -30.682163 -7.126029 -2.865036 26.434750 9.019144 1.741938 11.548242 -0.432881 -3.288960 0.000000 -0.000000 0.000000 -0.000000 0.000000 -0.000000 12.815770 -3.420261 0.123483 0.914811 -0.943471 0.327020 0.911704 -0.957353 0.337022 -2.544713 -0.289313 0.797942 -2.544710 -0.289319 0.797944 0.000000 0.000000 0.000000 -2.544711 -0.289311 0.797941 -2.544707 -0.289313 0.797942 0.000000 -0.000000 -0.000000 0.000000 0.000000 0.000000 3.550462 0.032971 -14.539492 11.828828 -21.352399 -50.480077 -0.000150 -97.643688 -0.000148 -0.648411 12.511687 8.586402 -4.311155 -2.034705 22.576260 18.837634 14.746976 -13.799322 0.000003 0.000000 0.000001 -1.226448 -0.580583 -45.167812 2.640794 4.894295 -56.678843 0.000000 0.000002 -0.000002 0.818256 5.550351 -45.342583 2.468356 4.776892 -54.633573 -0.000001 0.000002 -0.000004 2.221477 6.899160 -53.252270 2.890100 5.048771 -59.554988 -0.000001 -0.000000 -0.000003 -4.518341 10.245466 -53.060410 2.661815 4.907990 -56.924955 -0.000000 -0.000003 -0.000000 0.000001 -0.000001 -0.000002 0.000001 -0.000001 -0.000002 0.000001 -0.000001 -0.000002 -0.000000 -0.000002 -0.000001 0.000000 -0.000002 -0.000001 -0.000000 -0.000002 -0.000001 -0.000001 -0.000002 -0.000002 4.181565 -8.238849 16.043795 20.261584 5.377668 51.369180 0.000018 54.593388 -0.000021 -0.716179 18.546603 1.098429 -3.416220 2.827258 -14.141384 17.349478 -14.499149 5.243564 0.000002 0.000001 -0.000000 -1.706004 4.644445 16.352289 1.190295 -3.111564 41.859555 -0.000002 -0.000000 0.000003 -1.711020 0.029258 27.273960 0.975618 -2.854229 37.736157 0.000003 0.000000 0.000001 0.677269 -4.638003 33.976995 1.027589 -2.920058 38.767655 -0.000001 0.000003 -0.000002 -10.015398 -16.081317 29.880227 0.711675 -2.476258 32.064316 0.000001 -0.000002 -0.000004 0.000000 0.000001 -0.000000 0.000000 0.000001 0.000000 0.000000 0.000001 0.000000 -0.000001 0.000001 -0.000001 -0.000001 0.000002 0.000001 -0.000001 0.000001 -0.000001 -0.000001 0.000002 0.000000 0.000001 -0.000000 0.000000 0.000001 -0.000000 0.000000 0.000001 -0.000000 0.000000 0.000001 -0.000000 0.000000 0.000001 -0.000000 0.000000 0.000001 -0.000000 0.000000 0.000001 -0.000000 0.000000 0.000000 0.000000 -0.000000 0.000000 -0.000000 0.000000 
